<mxfile host="app.diagrams.net" agent="Mozilla/5.0 (Windows NT 10.0; Win64; x64) AppleWebKit/537.36 (KHTML, like Gecko) Chrome/126.0.0.0 Safari/537.36 OPR/112.0.0.0 (Edition std-1)" version="24.7.10">
  <diagram name="P치gina-1" id="NFxna9VedUCatOGisaG8">
    <mxGraphModel dx="1393" dy="788" grid="1" gridSize="10" guides="1" tooltips="1" connect="1" arrows="1" fold="1" page="1" pageScale="1" pageWidth="827" pageHeight="1169" math="0" shadow="0">
      <root>
        <mxCell id="0" />
        <mxCell id="1" parent="0" />
        <mxCell id="OXpMGopl-wAm-qDWib7c-2" value="" style="rounded=0;whiteSpace=wrap;html=1;" vertex="1" parent="1">
          <mxGeometry x="150" y="60" width="540" height="460" as="geometry" />
        </mxCell>
        <mxCell id="OXpMGopl-wAm-qDWib7c-4" style="edgeStyle=orthogonalEdgeStyle;rounded=0;orthogonalLoop=1;jettySize=auto;html=1;exitX=0.5;exitY=0.5;exitDx=0;exitDy=0;exitPerimeter=0;entryX=0;entryY=0.5;entryDx=0;entryDy=0;" edge="1" parent="1" source="OXpMGopl-wAm-qDWib7c-1" target="OXpMGopl-wAm-qDWib7c-3">
          <mxGeometry relative="1" as="geometry" />
        </mxCell>
        <mxCell id="OXpMGopl-wAm-qDWib7c-1" value="Usuario Alumno" style="shape=umlActor;verticalLabelPosition=bottom;verticalAlign=top;html=1;outlineConnect=0;" vertex="1" parent="1">
          <mxGeometry x="90" y="230" width="30" height="60" as="geometry" />
        </mxCell>
        <mxCell id="OXpMGopl-wAm-qDWib7c-8" style="rounded=0;orthogonalLoop=1;jettySize=auto;html=1;exitX=1;exitY=0.5;exitDx=0;exitDy=0;entryX=0;entryY=0.5;entryDx=0;entryDy=0;" edge="1" parent="1" source="OXpMGopl-wAm-qDWib7c-3" target="OXpMGopl-wAm-qDWib7c-7">
          <mxGeometry relative="1" as="geometry" />
        </mxCell>
        <mxCell id="OXpMGopl-wAm-qDWib7c-11" value="&amp;lt;&amp;lt;include&amp;gt;&amp;gt;" style="edgeLabel;html=1;align=center;verticalAlign=middle;resizable=0;points=[];" vertex="1" connectable="0" parent="OXpMGopl-wAm-qDWib7c-8">
          <mxGeometry x="0.1128" y="2" relative="1" as="geometry">
            <mxPoint as="offset" />
          </mxGeometry>
        </mxCell>
        <mxCell id="OXpMGopl-wAm-qDWib7c-9" style="edgeStyle=orthogonalEdgeStyle;rounded=0;orthogonalLoop=1;jettySize=auto;html=1;exitX=1;exitY=0.5;exitDx=0;exitDy=0;entryX=0;entryY=0.5;entryDx=0;entryDy=0;" edge="1" parent="1" source="OXpMGopl-wAm-qDWib7c-3" target="OXpMGopl-wAm-qDWib7c-6">
          <mxGeometry relative="1" as="geometry" />
        </mxCell>
        <mxCell id="OXpMGopl-wAm-qDWib7c-12" value="&amp;lt;&amp;lt;include&amp;gt;&amp;gt;" style="edgeLabel;html=1;align=center;verticalAlign=middle;resizable=0;points=[];" vertex="1" connectable="0" parent="OXpMGopl-wAm-qDWib7c-9">
          <mxGeometry x="0.0154" relative="1" as="geometry">
            <mxPoint as="offset" />
          </mxGeometry>
        </mxCell>
        <mxCell id="OXpMGopl-wAm-qDWib7c-10" style="rounded=0;orthogonalLoop=1;jettySize=auto;html=1;exitX=1;exitY=0.5;exitDx=0;exitDy=0;entryX=0;entryY=0.5;entryDx=0;entryDy=0;" edge="1" parent="1" source="OXpMGopl-wAm-qDWib7c-3" target="OXpMGopl-wAm-qDWib7c-5">
          <mxGeometry relative="1" as="geometry" />
        </mxCell>
        <mxCell id="OXpMGopl-wAm-qDWib7c-13" value="&amp;lt;&amp;lt;include&amp;gt;&amp;gt;" style="edgeLabel;html=1;align=center;verticalAlign=middle;resizable=0;points=[];" vertex="1" connectable="0" parent="OXpMGopl-wAm-qDWib7c-10">
          <mxGeometry x="0.0672" y="-2" relative="1" as="geometry">
            <mxPoint y="1" as="offset" />
          </mxGeometry>
        </mxCell>
        <mxCell id="OXpMGopl-wAm-qDWib7c-3" value="Cambiar contrase침a" style="ellipse;whiteSpace=wrap;html=1;" vertex="1" parent="1">
          <mxGeometry x="200" y="220" width="120" height="80" as="geometry" />
        </mxCell>
        <mxCell id="OXpMGopl-wAm-qDWib7c-5" value="Establecer nueva contrase침a" style="ellipse;whiteSpace=wrap;html=1;" vertex="1" parent="1">
          <mxGeometry x="450" y="310" width="120" height="80" as="geometry" />
        </mxCell>
        <mxCell id="OXpMGopl-wAm-qDWib7c-6" value="Ingresar contrase침a actual" style="ellipse;whiteSpace=wrap;html=1;" vertex="1" parent="1">
          <mxGeometry x="450" y="220" width="120" height="80" as="geometry" />
        </mxCell>
        <mxCell id="OXpMGopl-wAm-qDWib7c-7" value="Acceder al perfil" style="ellipse;whiteSpace=wrap;html=1;" vertex="1" parent="1">
          <mxGeometry x="450" y="130" width="120" height="80" as="geometry" />
        </mxCell>
      </root>
    </mxGraphModel>
  </diagram>
</mxfile>
